<?xml version="1.0" encoding="UTF-8" standalone="no"?>
<!-- Created with Inkscape (http://www.inkscape.org/) -->

<svg
   width="128mm"
   height="128mm"
   viewBox="0 0 128 128"
   version="1.1"
   id="svg1"
   inkscape:version="1.4.2 (ebf0e940d0, 2025-05-08)"
   sodipodi:docname="icon.svg"
   xmlns:inkscape="http://www.inkscape.org/namespaces/inkscape"
   xmlns:sodipodi="http://sodipodi.sourceforge.net/DTD/sodipodi-0.dtd"
   xmlns="http://www.w3.org/2000/svg"
   xmlns:svg="http://www.w3.org/2000/svg">
  <sodipodi:namedview
     id="namedview1"
     pagecolor="#ffffff"
     bordercolor="#000000"
     borderopacity="0.25"
     inkscape:showpageshadow="2"
     inkscape:pageopacity="0.0"
     inkscape:pagecheckerboard="0"
     inkscape:deskcolor="#d1d1d1"
     inkscape:document-units="mm"
     inkscape:zoom="1"
     inkscape:cx="619.5"
     inkscape:cy="267"
     inkscape:window-width="1908"
     inkscape:window-height="1145"
     inkscape:window-x="0"
     inkscape:window-y="0"
     inkscape:window-maximized="1"
     inkscape:current-layer="svg1" />
  <defs
     id="defs1">
    <inkscape:path-effect
       effect="spiro"
       id="path-effect3"
       is_visible="true"
       lpeversion="1" />
  </defs>
  <g
     id="g12"
     transform="matrix(1.4598355,0,0,1.4598355,24.952727,2.2546134)">
    <rect
       style="fill:#999999;fill-opacity:1;stroke:#000000;stroke-width:0.565;stroke-dasharray:none;stroke-opacity:1"
       id="rect2"
       width="50.849609"
       height="82.475586"
       x="2.6458333"
       y="2.1166666"
       ry="5.4777017"
       inkscape:label="rect2" />
    <rect
       style="fill:#ffffff;fill-opacity:1;stroke:#000000;stroke-width:0.565;stroke-dasharray:none;stroke-opacity:1"
       id="rect1"
       width="50.849609"
       height="82.475586"
       x="0"
       y="0"
       ry="5.4777017"
       inkscape:label="rect1" />
    <path
       style="fill:none;fill-opacity:1;stroke:#000000;stroke-width:0.565;stroke-linecap:round;stroke-linejoin:round;stroke-dasharray:none;stroke-opacity:1"
       d="M 4.2085288,11.002947 C 5.315436,9.3886736 6.6532343,7.8048826 8.4976729,7.0238609 8.5455049,8.7112497 6.2381252,10.298355 6.249476,11.406815 6.8947702,11.10013 9.2434494,9.3189517 8.3503561,10.802613 8.158341,12.760079 10.854162,10.662639 10.625958,10.06031 c -0.9817587,1.583151 1.733448,1.541441 2.080761,0.302458 -0.223037,1.957737 2.014569,-0.166398 2.620775,0.98425 1.678915,-0.0013 3.171236,-1.201176 4.32951,-2.3122403 1.718459,-1.192645 1.458017,1.8395523 1.503162,2.8511153 -0.211795,1.592251 0.122359,-1.110752 0.831977,-1.35051 1.268792,-1.6438414 2.859752,1.201047 4.01814,-0.7830857 0.477347,-0.8766036 -0.605629,0.7538437 0.393115,0.9374237 1.754848,1.252208 2.642208,-1.3996128 4.066697,-1.3768879 1.422871,1.3494479 3.325604,2.0558519 5.231228,1.2124939 0.83101,-0.181518 2.915907,-1.4673879 0.933955,-1.4363999 -1.838564,0.5867244 -1.29506,4.3394859 0.867941,3.7649669 1.453131,-0.5993 3.427272,-1.978441 3.210452,-3.7316737 -0.469241,0.6382975 -0.334054,2.7741887 -1.16781,2.6592667 -0.691174,-1.745938 1.568689,-2.2399518 2.523131,-1.436912 1.879894,-0.8253989 3.879797,-0.4468732 5.857805,-0.4785093"
       id="path7" />
    <path
       style="fill:none;fill-opacity:1;stroke:#000000;stroke-width:0.564999;stroke-linecap:round;stroke-linejoin:round;stroke-dasharray:none;stroke-opacity:1"
       d="m 3.4524273,20.826079 c -0.014064,-1.101556 2.9805136,-1.149075 1.1559695,-0.299013 0.740197,0.637035 2.2832087,-0.939879 2.697949,0.276703 0.6617809,-0.16345 1.525537,-0.54571 1.6359632,0.271134 1.0408543,0.425472 2.521297,-0.144595 2.919296,-0.490173 0.788071,-0.293301 1.17971,-1.949986 2.065814,-0.926951 1.519465,0.5306 2.384824,-2.602916 2.607089,-2.318608 -0.804887,3.325392 -1.532836,6.785478 -3.343311,9.728862 -0.777229,0.429731 0.293474,-1.712708 0.673426,-2.05686 1.739819,-2.004677 4.214302,-3.317089 6.756211,-3.974119 0.50346,0.0095 2.602025,-0.294987 0.976349,-0.160142 -1.121131,0.363554 -0.614116,0.819492 0.222511,0.36643 1.459238,-0.808992 2.949971,-1.026016 4.379192,-0.900241 0.987487,0.266347 1.592742,-0.997322 2.442937,0.0297 1.042561,-0.02891 2.000374,-0.698854 2.895685,-0.49101 0.745002,-0.836387 -1.147361,-2.355774 -0.843871,-0.650624 -0.05723,2.226549 2.781025,1.251575 3.398749,0.495416 1.299408,0.778846 3.155086,-0.309954 4.579381,-0.727156 0.554865,0.203645 1.874543,0.272055 1.276727,-0.850158 -1.529244,-1.40912 -2.356535,1.878846 -0.349454,1.790143 1.01858,0.204491 2.978474,0.407034 3.416084,0.527753 -1.457755,0.510126 -1.941931,-0.768144 -0.394501,-1.010118 1.110879,-0.489235 2.243694,-0.350206 2.936394,0.430003 0.301708,-0.01086 0.595692,-0.10302 0.867322,-0.230273"
       id="path8" />
    <path
       style="fill:none;fill-opacity:1;stroke:#000000;stroke-width:0.564999;stroke-linecap:round;stroke-linejoin:round;stroke-dasharray:none;stroke-opacity:1"
       d="m 3.0870196,32.521273 c -0.5881528,1.369954 1.8629112,1.982647 1.2170198,0.962004 -1.9631603,0.868946 -1.695719,4.765409 0.8538638,2.704062 1.6987211,-0.839354 -0.6697122,-3.313161 -0.3522879,-1.337973 1.6713658,1.087973 3.8451217,-3.36254 1.8425245,-2.484891 -1.514223,2.874545 3.2668635,0.739095 3.8862962,0.378591 -0.218297,2.268604 1.717949,-0.934553 1.322364,1.020593 1.584587,1.963105 3.988682,-2.317753 3.404436,0.191175 0.85136,0.002 2.310711,-2.086412 1.682642,-0.038 0.815384,2.103746 2.412173,-0.774341 3.312048,-0.554423 1.234509,-1.144483 -0.07035,1.075512 1.189136,0.02876 1.183543,-0.395456 2.215749,-1.671266 2.16436,0.126215 0.905548,1.562267 3.881241,-0.808958 2.789967,-0.834458 -1.745418,2.625957 1.704443,3.619085 3.501511,2.042597 1.70715,0.201682 6.354254,0.485562 4.757334,-1.76575 1.310619,1.224209 4.772251,2.686763 5.68685,0.768364 -0.283343,-2.094618 -5.227811,-1.339772 -2.495077,0.368187 2.115875,0.06522 3.94478,-1.999765 6.167382,-0.878863 1.010002,1.005921 2.389603,-0.07095 3.795516,0.03464"
       id="path9" />
    <path
       style="fill:none;fill-opacity:1;stroke:#000000;stroke-width:0.564999;stroke-linecap:round;stroke-linejoin:round;stroke-dasharray:none;stroke-opacity:1"
       d="m 3.6297526,44.803467 c 0.7117125,-0.963622 0.4723692,-3.13856 1.3919835,-3.532515 -0.089056,1.233802 -0.5345189,4.543965 1.5787651,2.992818 1.0121871,0.100309 2.3792273,-0.954158 2.9991661,0.295727 0.7007967,-0.01944 1.7914667,-2.176017 1.2505917,-0.529887 0.423692,1.018136 1.764353,-0.131117 2.301306,0.330421 0.58696,-0.46928 1.986261,-2.575633 1.326021,-0.601492 0.205065,1.906553 2.352827,-0.596732 3.20046,-0.923759 0.720624,-0.399215 -0.679348,1.461228 -0.719588,1.981815 -0.448313,0.699066 -0.146626,1.876169 0.563411,0.689592 0.665673,-0.868198 1.48321,-1.942536 2.240169,-1.873206 0.805514,-0.802774 1.476573,-1.75155 1.975494,-2.772851 -1.299047,1.530142 0.458022,4.305192 1.897121,2.128017 0.577164,-0.467414 1.5991,-2.047643 1.023217,-0.276422 0.864078,0.877988 2.501585,-2.350813 1.576567,-0.317141 -0.763844,0.668606 -0.826761,3.129182 0.534387,1.671253 0.426494,-0.409867 1.251677,-1.618027 0.869903,-0.245635 0.272311,1.244183 2.858047,-1.338705 2.451391,0.831445 1.414567,0.503825 3.191936,0.592287 4.471249,-0.295342 1.465168,-1.298909 -1.1435,-2.773159 -1.138269,-0.715015 0.601432,1.638233 2.970841,-0.05327 4.074621,-0.460732 1.025602,-0.393848 0.411271,-2.33969 -0.275064,-0.931795 0.483961,-0.459911 1.804408,-1.407894 1.167948,-0.03133 0.480874,0.501639 1.893611,-1.702959 1.13019,-0.0779 0.06392,0.891041 -0.07528,2.182816 0.113857,2.95151 2.011789,0.730025 2.632148,-2.027227 4.266784,-1.833248 1.390052,-0.826078 2.315451,0.77112 3.601588,-0.0563"
       id="path10" />
    <path
       style="fill:none;fill-opacity:1;stroke:#000000;stroke-width:0.564999;stroke-linecap:round;stroke-linejoin:round;stroke-dasharray:none;stroke-opacity:1"
       d="m 5.1458408,55.456328 c -0.9247221,0.854784 -1.1700233,2.528979 0.4478842,1.466614 0.8148995,-0.111681 2.5297811,-1.699898 2.1338886,-1.56092 -0.7787979,0.871236 -1.3064415,2.934375 0.610161,2.366209 1.2312417,0.06014 2.9853024,-0.974593 3.7585564,-0.917964 0.679956,0.900487 1.636752,-1.87883 1.886564,-0.483546 0.965248,0.422364 1.238543,-1.324595 1.265625,0.109181 1.44898,0.371809 3.001441,-0.06671 4.365145,-0.586932 0.492247,-0.247201 0.05521,1.407936 1.171615,0.776661 1.031649,0.365324 1.781994,-1.894947 2.043492,-0.719863 1.450681,0.357789 1.62608,-2.376245 1.099013,-2.641888 -0.976104,1.213616 -2.049376,2.817582 -1.984207,4.378533 1.884277,0.361717 3.823675,-0.188489 5.439382,-1.185641 0.554281,-0.234053 2.2056,-1.597437 2.025939,-1.512016 -0.971513,0.586497 -0.704929,1.683974 0.395089,0.985435 1.133508,-0.475137 2.396535,-0.976634 3.405148,-1.497007 -0.242705,0.92929 -0.562442,2.944581 0.987434,1.98887 0.789604,-0.356834 0.979698,-0.820236 0.869497,0.3142 0.44936,1.284623 1.522103,-0.306373 1.797143,-0.622195 1.071303,0.115043 0.625942,-1.099359 0.730817,-1.023139 0.507037,-0.534853 1.114803,-1.321353 1.327965,-0.06873 1.002431,1.703931 2.881632,-1.137169 3.568496,0.361062 1.494483,0.499184 2.898438,-0.76939 4.287006,-0.0091 l 0.244047,-0.137059"
       id="path11" />
    <path
       style="fill:none;fill-opacity:1;stroke:#000000;stroke-width:0.564999;stroke-linecap:round;stroke-linejoin:round;stroke-dasharray:none;stroke-opacity:1"
       d="m 3.6297526,70.590007 c 0,0.172254 -0.041778,0.349652 0,0.516763 0.1102236,0.440894 0.9166651,1.348991 1.4469401,1.136883 0.1153305,-0.04613 0.1958872,-0.157777 0.3100586,-0.206706 0.9976768,-0.427577 -0.2060977,0.324387 0.8268229,-0.413411 0.2021554,-0.144397 0.4649245,-0.219422 0.6201172,-0.413412 0.068056,-0.08507 0.062892,-0.208907 0.1033528,-0.31006 0.02861,-0.07152 0.1378038,-0.137803 0.1033529,-0.206706 -0.2051243,-0.410247 -1.6488534,1.964902 -0.8268229,2.170412 0.8001936,0.200046 1.5799996,-0.367615 2.1704101,-0.826823 0.2565471,-0.199538 0.7871889,-1.007107 0.5167643,-0.826823 -0.3583932,0.238927 -0.4396523,1.326629 0.3100586,0.826823 0.6009841,-0.400656 0.4838301,-0.897242 0.9301758,-1.343589 0.02436,-0.02437 0,0.0689 0,0.103355 0,0.206705 0,0.413411 0,0.620117 0,0.382762 -0.07086,2.036868 0.72347,1.860351 0.196099,-0.04358 0.354772,-0.191264 0.516765,-0.31006 0.355776,-0.260902 0.708305,-0.528701 1.033528,-0.826822 1.345404,-1.233287 2.394399,-2.660653 3.307292,-4.237467 0.192986,-0.33334 0.172255,-0.861274 0.516764,-1.033528 0.06163,-0.03082 0.0097,0.138496 0,0.206706 -0.104953,0.734676 -0.255638,0.918696 -0.620117,1.756997 -0.165979,0.381751 -0.37822,0.744342 -0.516764,1.136883 -0.03515,0.0996 -0.199551,1.29708 -0.206706,1.343586 -0.09441,0.61369 -0.360292,1.757576 0.413411,2.067057 0.06397,0.02559 0.139142,-0.01352 0.206706,0 1.438957,0.287793 2.995306,-0.457846 4.134115,-1.343586 0.265469,-0.206476 1.108951,-1.08939 1.033528,-1.240234 -0.350926,-0.701853 -3.096539,1.761043 -2.997233,1.860351 0.315645,0.315643 2.10053,-1.055843 2.377116,-1.240234 0.153757,-0.102505 0.14047,1.12432 0.206706,1.240234 0.08792,0.153861 0.529183,0.365567 0.72347,0.310057 0.848395,-0.242398 2.630012,-1.265488 3.410644,-1.756997 0.501577,-0.315809 0.936058,-0.733009 1.446941,-1.033529 0.641565,-0.377393 0.305293,0.61535 0.413411,0.723469 0.108388,0.108389 1.156495,-0.639731 1.240236,-0.723469 0.05447,-0.05447 0.04888,-0.152235 0.103351,-0.206705 0.0525,-0.0525 -0.168867,1.813475 0.206706,1.963703 0.432996,0.173199 1.163603,-0.199575 1.550294,-0.310057 0.273159,-0.07805 0.568881,-0.08766 0.826823,-0.206706 0.768882,-0.615106 0.22175,-0.259329 1.033529,-0.620117 0.14079,-0.06257 0.281297,-0.12744 0.413411,-0.206706 0.04178,-0.02506 0.08156,-0.146931 0.103352,-0.103354 0.04622,0.09244 -0.01461,0.207745 0,0.31006 0.124595,0.872156 0.661151,1.004218 1.343588,0.516763 0.118936,-0.08495 0.163894,-0.310058 0.310058,-0.310058 0.0155,0 -0.181087,1.104638 0.516765,0.930175 0.919618,-0.229905 1.06226,-0.29373 1.860352,-0.723469 0.176868,-0.09524 0.34962,-0.198631 0.516763,-0.31006 0.04054,-0.02702 0.05463,-0.103351 0.103354,-0.103351 0.03445,0 -0.0109,0.07067 0,0.103351 0.02437,0.07308 0.05713,0.145079 0.103351,0.206706 0.237332,0.316442 0.407366,0.371467 0.826823,0.413411 0.996575,0.09966 1.917174,-0.08462 2.893881,-0.206705 0.524187,-0.06552 1.122254,0 1.653645,0 0.731756,0 3.357383,0.156614 4.030763,-0.516763 0.05447,-0.05447 0.04888,-0.152236 0.103352,-0.206706 0.137803,-0.137806 0.103354,0.172254 0.103354,-0.103354"
       id="path12" />
  </g>
</svg>
